<svg width="1150" height="488" xmlns="http://www.w3.org/2000/svg" xmlns:xlink="http://www.w3.org/1999/xlink" xml:space="preserve" overflow="hidden"><g transform="translate(-62 -38)"><text font-family="Calibri Light,Calibri Light_MSFontService,sans-serif" font-weight="300" font-size="59" transform="translate(97.6 124)">Anatomy of a Make rule</text><rect x="240.5" y="272.5" width="904" height="100" stroke="#2F5597" stroke-linejoin="round" stroke-miterlimit="10" fill="none"/><text font-family="Consolas,Consolas_MSFontService,sans-serif" font-weight="400" font-size="37" transform="translate(249.6 312)">p</text><text font-family="Consolas,Consolas_MSFontService,sans-serif" font-weight="400" font-size="37" transform="translate(270.1 312)">asta.o</text><text font-family="Consolas,Consolas_MSFontService,sans-serif" font-weight="400" font-size="37" transform="translate(413.6 312)">: </text><text font-family="Consolas,Consolas_MSFontService,sans-serif" font-weight="400" font-size="37" transform="translate(454.6 312)">pasta.c</text><text font-family="Consolas,Consolas_MSFontService,sans-serif" font-weight="400" font-size="37" transform="translate(618.6 312)">servings.h</text><text font-family="Consolas,Consolas_MSFontService,sans-serif" font-weight="400" font-size="37" transform="translate(844.1 312)"># make pasta</text><text font-family="Consolas,Consolas_MSFontService,sans-serif" font-weight="400" font-size="37" transform="translate(331.6 357)">gcc</text><text font-family="Consolas,Consolas_MSFontService,sans-serif" font-weight="400" font-size="37" transform="translate(413.6 357)">-</text><text font-family="Consolas,Consolas_MSFontService,sans-serif" font-weight="400" font-size="37" transform="translate(434.1 357)">c </text><text font-family="Consolas,Consolas_MSFontService,sans-serif" font-weight="400" font-size="37" transform="translate(475.1 357)">pasta.c</text><path d="M215.333 224 215.333 264Z" stroke="#385723" stroke-width="4" stroke-miterlimit="8" fill="none" fill-rule="evenodd"/><path d="M215.333 236.475 310.8 299.912" stroke="#385723" stroke-width="4" stroke-miterlimit="8" fill="none" fill-rule="evenodd"/><text font-family="Calibri,Calibri_MSFontService,sans-serif" font-weight="400" font-size="32" transform="translate(123.773 255)">Target</text><path d="M190.769 0 190.769 40Z" stroke="#385723" stroke-width="4" stroke-miterlimit="8" fill="none" fill-rule="evenodd" transform="matrix(-1 0 0 1 1072 159)"/><path d="M190.769 12.4752 462.708 142.579" stroke="#385723" stroke-width="4" stroke-miterlimit="8" fill="none" fill-rule="evenodd" transform="matrix(-1 0 0 1 1072 159)"/><text font-family="Calibri,Calibri_MSFontService,sans-serif" font-weight="400" font-size="32" transform="translate(891.177 190)">Prerequisites</text><path d="M166.769 0 166.769 40Z" stroke="#385723" stroke-width="4" stroke-miterlimit="8" fill="none" fill-rule="evenodd" transform="matrix(-1 0 0 1 1224 427)"/><path d="M166.769 20.4752 252.042-117.421" stroke="#385723" stroke-width="4" stroke-miterlimit="8" fill="none" fill-rule="evenodd" transform="matrix(-1 0 0 1 1224 427)"/><text font-family="Calibri,Calibri_MSFontService,sans-serif" font-weight="400" font-size="32" transform="translate(1063.98 458)">Comment</text><path d="M146.769 0 146.769 40Z" stroke="#385723" stroke-width="4" stroke-miterlimit="8" fill="none" fill-rule="evenodd" transform="matrix(-1 0 0 1 712 467)"/><path d="M146.769 20.4752 265.377-101.421" stroke="#385723" stroke-width="4" stroke-miterlimit="8" fill="none" fill-rule="evenodd" transform="matrix(-1 0 0 1 712 467)"/><text font-family="Calibri,Calibri_MSFontService,sans-serif" font-weight="400" font-size="32" transform="translate(572.78 498)">Recipe</text></g></svg>